<?xml version="1.0" encoding="UTF-8"?> <!-- Creator: CorelDRAW 2019 (64-Bit) --> <svg xmlns="http://www.w3.org/2000/svg" xmlns:xlink="http://www.w3.org/1999/xlink" xmlns:xodm="http://www.corel.com/coreldraw/odm/2003" xml:space="preserve" width="104.12mm" height="20.3399mm" version="1.1" style="shape-rendering:geometricPrecision; text-rendering:geometricPrecision; image-rendering:optimizeQuality; fill-rule:evenodd; clip-rule:evenodd" viewBox="0 0 8183.96 1598.74"> <defs> <style type="text/css"> <![CDATA[ .fil1 {fill:#0C53A1;fill-rule:nonzero} .fil0 {fill:#E30919;fill-rule:nonzero} ]]> </style> </defs> <g id="Layer_x0020_1"> <metadata id="CorelCorpID_0Corel-Layer"></metadata> <path class="fil0" d="M3199.75 1463.86c-49.68,46.46 -106.19,80.5 -169.54,102.34 -63.66,21.62 -137.87,32.55 -223.27,32.55 -187.56,0 -339.09,-44.96 -455.23,-134.67 -116.13,-89.71 -174.2,-207.47 -174.2,-353.49 0,-147.3 58.06,-264.84 173.88,-353.26 115.83,-88.21 270.16,-132.32 462.99,-132.32 167.99,0 304.93,27.83 411.13,83.29 105.88,55.45 169.24,131.67 189.11,228.87l-281.33 0c-17.08,-48.17 -51.54,-84.78 -104.03,-110.05 -52.47,-25.04 -120.79,-37.68 -204.94,-37.68 -112.09,0 -199.98,28.27 -263.94,85 -63.97,56.73 -95.96,134.89 -95.96,234.87 0,100.41 33.23,178.99 99.99,235.94 66.45,56.73 158.05,85.21 274.5,85.21 87.26,0 160.23,-17.77 218.92,-53.31 58.68,-35.33 95.02,-83.93 109,-145.81l-303.38 0 0 -158 554.89 0 0 499.71 -185.07 0 -33.54 -109.19z"></path> <path id="1" class="fil0" d="M4159.39 1366.22l264.56 0c-26.7,71.94 -80.42,128.03 -161.47,168.93 -81.05,40.68 -179.79,61.02 -296.55,61.02 -143.16,0 -256.8,-33.19 -340.33,-99.34 -83.85,-66.37 -125.77,-156.29 -125.77,-269.55 0,-111.76 41.31,-199.76 123.59,-264.2 82.6,-64.45 195.32,-96.56 338.47,-96.56 151.85,0 268.92,31.69 351.51,95.06 82.3,63.38 123.58,153.73 123.58,270.84 0,13.06 0,22.7 -0.31,29.33 -0.31,6.42 -1.24,12.63 -2.16,18.42l-660.8 0c3.72,53.52 22.67,93.98 56.82,121.18 34.17,27.19 83.54,40.68 147.81,40.68 45.65,0 82.92,-6.21 111.79,-18.42 29.18,-12.41 52.17,-31.47 69.24,-57.38zm-385.67 -205.53l389.4 0c-2.49,-46.03 -20.19,-81.14 -53.1,-105.12 -33.22,-24.19 -80.74,-36.18 -142.53,-36.18 -57.46,0 -102.78,12.2 -136.01,36.39 -32.91,24.41 -52.17,59.3 -57.76,104.91z"></path> <path id="2" class="fil0" d="M4507.3 1573.05l0 -923.63 262.7 0 0 316.87c35.71,-30.84 78.25,-54.17 127.93,-69.8 49.38,-15.63 104.65,-23.55 165.83,-23.55 58.38,0 110.85,6.85 158.05,20.77 46.89,13.7 84.77,33.4 113.96,58.87 20.18,17.13 34.16,36.82 42.23,58.88 8.39,22.06 12.42,57.59 12.42,106.62l0 12.42 0 442.54 -262.7 0 0 -357.12c0,-84.57 -11.18,-137.45 -33.54,-159.07 -22.66,-21.63 -63.03,-32.33 -121.1,-32.33 -62.72,0 -112.1,12.84 -148.43,38.53 -36.33,25.69 -54.65,60.81 -54.65,105.13l0 404.86 -262.7 0z"></path> <path id="3" class="fil0" d="M5513.21 1573.05l0 -682.12 245.63 0 0 116.68c34.46,-46.67 74.83,-81.15 121.1,-102.98 46.26,-22.06 101.22,-32.97 165.2,-32.97 10.24,0 18.32,0 23.91,0.21 5.9,0.22 10.56,0.64 14.28,1.08l0.94 184.98 -88.5 0c-72.36,0 -126.71,13.06 -163.34,38.96 -36.34,25.91 -54.65,64.45 -54.65,115.4l0 360.76 -264.56 0z"></path> <polygon id="4" class="fil0" points="6123.82,1573.05 6123.82,649.42 6380.94,649.42 6380.94,1133.71 6695.8,890.93 7014.41,890.93 6669.4,1143.78 7034.89,1573.05 6717.85,1573.05 6480.92,1282.51 6380.94,1357.23 6380.94,1573.05 "></polygon> <path id="5" class="fil0" d="M7649.86 1366.22l264.56 0c-26.7,71.94 -80.42,128.03 -161.47,168.93 -81.05,40.68 -179.79,61.02 -296.56,61.02 -143.15,0 -256.8,-33.19 -340.33,-99.34 -83.84,-66.37 -125.76,-156.29 -125.76,-269.55 0,-111.76 41.3,-199.76 123.58,-264.2 82.61,-64.45 195.32,-96.56 338.47,-96.56 151.85,0 268.91,31.69 351.51,95.06 82.3,63.38 123.59,153.73 123.59,270.84 0,13.06 0,22.7 -0.31,29.33 -0.31,6.42 -1.24,12.63 -2.17,18.42l-660.79 0c3.72,53.52 22.66,93.98 56.82,121.18 34.16,27.19 83.54,40.68 147.81,40.68 45.64,0 82.92,-6.21 111.79,-18.42 29.18,-12.41 52.17,-31.47 69.25,-57.38zm-385.67 -205.53l389.39 0c-2.48,-46.03 -20.18,-81.14 -53.1,-105.12 -33.22,-24.19 -80.73,-36.18 -142.52,-36.18 -57.46,0 -102.79,12.2 -136.02,36.39 -32.91,24.41 -52.16,59.3 -57.75,104.91z"></path> <path class="fil1" d="M7999.05 468.01c51.05,0 97.28,20.7 130.75,54.17 33.45,33.45 54.16,79.69 54.16,130.74 0,51.02 -20.7,97.24 -54.16,130.71 -33.52,33.5 -79.73,54.2 -130.75,54.2 -51.05,0 -97.28,-20.7 -130.74,-54.16 -33.47,-33.47 -54.17,-79.7 -54.17,-130.75 0,-51 20.7,-97.21 54.17,-130.7 33.52,-33.51 79.74,-54.21 130.74,-54.21zm-84.94 296.34l0 -218.7 96.92 0c19.5,0 34.32,1.99 44.45,5.9 10.13,3.92 18.22,10.85 24.28,20.77 6.05,9.93 9.06,20.92 9.06,32.93 0,15.53 -5.05,28.61 -15.07,39.25 -10.03,10.63 -25.51,17.36 -46.48,20.26 7.69,3.65 13.49,7.33 17.46,10.89 8.45,7.74 16.44,17.47 23.93,29.12l37.82 59.56 -36.14 0 -28.92 -45.51c-8.39,-13.19 -15.37,-23.21 -20.82,-30.19 -5.49,-6.97 -10.38,-11.81 -14.71,-14.61 -4.27,-2.75 -8.7,-4.68 -13.18,-5.81 -3.25,-0.65 -8.6,-1.01 -16.09,-1.01l-33.49 0 0 97.14 -29.01 0zm29.01 -122.19l62.1 0c13.24,0 23.52,-1.37 30.95,-4.12 7.43,-2.7 13.09,-7.07 16.9,-13.13 3.87,-6.01 5.81,-12.52 5.81,-19.6 0,-10.34 -3.73,-18.89 -11.2,-25.56 -7.48,-6.67 -19.3,-9.97 -35.43,-9.97l-69.13 0 0 72.38zm170.11 -103.42c-29.22,-29.22 -69.59,-47.29 -114.18,-47.29 -44.61,0 -84.99,18.06 -114.17,47.25 -29.23,29.22 -47.29,69.6 -47.29,114.22 0,44.59 18.08,84.96 47.29,114.18 29.2,29.2 69.58,47.29 114.17,47.29 44.61,0 84.99,-18.06 114.19,-47.27 29.21,-29.2 47.27,-69.59 47.27,-114.19 0,-44.59 -18.09,-84.97 -47.29,-114.17z"></path> <g id="_2309822579776"> <path class="fil0" d="M1590 145.59l-793.87 0c-178.83,0 -341.46,73.22 -459.39,191.15 -117.93,117.93 -191.15,280.57 -191.15,459.39l0 6.48c0,178.83 73.21,341.46 191.14,459.4 117.94,117.93 280.58,191.14 459.4,191.14l650.56 0 0 -643.39 145.59 0 0 788.98 -796.15 0c-219,0 -418.06,-89.55 -562.32,-233.81 -144.26,-144.26 -233.81,-343.31 -233.81,-562.32l0 -6.48c0,-219 89.55,-418.05 233.82,-562.31 144.26,-144.26 343.31,-233.82 562.31,-233.82l793.87 0 0 145.59z"></path> <path class="fil1" d="M1586.42 542.01l-790.29 0c-69.42,0 -132.93,28.79 -179.12,74.99 -46.2,46.19 -74.99,109.7 -74.99,179.12l0 6.48c0,69.42 28.79,132.93 74.99,179.13 46.19,46.19 109.7,74.99 179.12,74.99l254.13 0 0 -252.84 145.59 0 0 398.42 -399.72 0c-109.59,0 -209.56,-45.16 -282.05,-117.65 -72.49,-72.49 -117.66,-172.46 -117.66,-282.05l0 -6.48c0,-109.59 45.17,-209.57 117.66,-282.05 72.48,-72.49 172.45,-117.66 282.05,-117.66l790.29 0 0 145.59z"></path> </g> </g> </svg> 