<?xml version="1.0" encoding="UTF-8"?> <svg xmlns="http://www.w3.org/2000/svg" xmlns:xlink="http://www.w3.org/1999/xlink" version="1.1" id="Ebene_1" x="0px" y="0px" viewBox="0 0 299.16513 172.69231" style="enable-background:new 0 0 299.16513 172.69231;" xml:space="preserve"> <style type="text/css"> .st0{fill:#A3D9F4;} .st1{fill:#B9E2F8;} .st2{fill:#BCE0F4;} .st3{fill:#4A4A48;} </style> <g> <path class="st0" d="M95.38647,20.58678l9.19897,0.97456c1.62168,0.17179,3.22253-0.47459,4.27028-1.72424l4.2286-5.04355 c0.58941-0.70301,0.12239-1.77716-0.79375-1.82558l-7.76842-0.41055c-1.8753-0.0991-3.70859,0.57872-5.06836,1.87393 l-4.65323,4.4323C94.18178,19.45303,94.53667,20.49675,95.38647,20.58678z"></path> <path class="st0" d="M111.77839,22.32337l13.82579,1.46472c1.42858,0.15134,2.80685-0.5762,3.48783-1.84112l3.31262-6.15313 c0.429-0.79687-0.11746-1.76909-1.02121-1.81686l-12.00974-0.63469c-1.46233-0.07728-2.87199,0.55634-3.78495,1.70127 l-4.49645,5.63895C110.59309,21.30854,110.98216,22.23902,111.77839,22.32337z"></path> <path class="st0" d="M133.39519,24.61348l17.70273,1.87544c1.77298,0.18784,3.39134-1.0219,3.71307-2.77551l1.18303-6.44821 c0.1915-1.04373-0.57773-2.01812-1.63739-2.07412l-15.82645-0.8364c-1.34891-0.07128-2.6106,0.66775-3.20816,1.87915 l-3.09102,6.2662C131.77834,23.41767,132.37767,24.50569,133.39519,24.61348z"></path> <path class="st0" d="M82.81425,33.2773l10.09026,2.02658c1.57419,0.31617,3.19537-0.25261,4.22695-1.483l6.98096-8.32636 c0.63686-0.7596,0.17528-1.92271-0.80917-2.03887l-9.4169-1.11127c-1.54433-0.18225-3.08958,0.33294-4.21555,1.40546 l-7.5358,7.17801C81.32719,31.69731,81.72048,33.05762,82.81425,33.2773z"></path> <path class="st0" d="M90.32188,37.88424l-9.86108-2.17738c-1.69655-0.37462-3.46829,0.11932-4.72632,1.31763L63.35408,48.81708 c-0.91172,0.86845-0.59961,2.39164,0.58021,2.8315l9.93023,3.70222c2.38203,0.88807,5.06517,0.17974,6.69849-1.76834 l10.74095-12.81099C92.16413,39.74551,91.62921,38.17291,90.32188,37.88424z"></path> <path class="st0" d="M113.67381,43.0405l-14.29462-3.15635c-1.87257-0.41348-3.81725,0.27478-5.01281,1.77414L83.64986,55.09776 c-1.1825,1.48296-0.57123,3.68826,1.20599,4.35085l3.64579,1.35923C91.17895,56.66759,97.71729,50.1799,113.67381,43.0405z"></path> <path class="st0" d="M124.43949,25.9499L111.13612,24.38c-1.70057-0.20069-3.38412,0.49153-4.45169,1.83036l-6.68272,8.38074 c-0.67113,0.84167-0.21394,2.09526,0.84148,2.30724l15.41434,3.09591c1.67178,0.33577,3.36656-0.46079,4.17487-1.96218 l5.2345-9.723C126.20482,27.30986,125.56646,26.08289,124.43949,25.9499z"></path> <path class="st0" d="M153.27483,32.08634c0.2659-1.44923-0.74744-2.82184-2.21071-2.99452l-17.79266-2.09968 c-1.843-0.21749-3.62299,0.75019-4.4426,2.41516l-4.40056,8.93933c-0.09967,0.20249-0.16787,0.41032-0.21101,0.61913 c9.21507-2.98947,19.37109-4.99691,28.95929-6.34391L153.27483,32.08634z"></path> <path class="st1" d="M107.44293,62.15971l8.35841-15.52558c0.75381-1.4002-0.04038-3.13279-1.59319-3.47565l-0.53435-0.11798 c-15.95651,7.13941-22.49486,13.6271-25.17217,17.76735l11.32068,4.2206C102.72247,66.10969,105.97571,64.88503,107.44293,62.15971 z"></path> <path class="st1" d="M126.22547,41.99625l20.8563,4.1889c1.91145,0.38391,3.76657-0.87323,4.11841-2.79086l1.97639-10.77245 c-9.5882,1.34701-19.74422,3.35444-28.95929,6.34391C123.93838,40.31571,124.79498,41.70894,126.22547,41.99625z"></path> <path class="st2" d="M145.67319,50.10615l-21.21407-4.6842c-1.86064-0.41084-3.76121,0.5026-4.60277,2.21215l-8.22424,16.70681 c-1.13329,2.30217-0.02966,5.07944,2.37466,5.97583l24.43169,9.10868c2.99983,1.11841,6.282-0.74407,6.86035-3.89294 l3.73895-20.35655C149.46391,52.8558,147.97664,50.61477,145.67319,50.10615z"></path> </g> <path class="st3" d="M96.50775,70.29163l17.92197,6.38557l-3.2448,21.2914h28.32787c1.82727,0,3.1913,1.68176,2.81415,3.46969 l-2.05629,9.74821c-0.37308,1.76868-1.93373,3.03446-3.74133,3.03446H93.91818c-2.51614,0-4.42867-2.26159-4.01075-4.74278 L96.50775,70.29163z"></path> <path class="st3" d="M195.06636,85.12205c0,0,17.29059-5.36973,17.29059-24.31421c0-15.15117-11.76923-19.19529-25.1219-19.19529 h-24.95827c-1.99706,0-3.7019,1.44269-4.03227,3.41224l-10.86046,64.74541c-0.39067,2.32899,1.40485,4.45077,3.76637,4.45077 h11.03455c2.01727,0,3.74309-1.44897,4.09224-3.43581l4.12077-23.44978h4.89066l12.60184,23.85587 c0.98448,1.86366,2.91924,3.02973,5.02693,3.02973h10.42792c3.1393,0,5.15878-3.33072,3.7072-6.11426L195.06636,85.12205z M184.7545,71.02355c-6.0446,0-11.61162,0-11.61162,0l1.86324-12.96391c0,0,10.37885,0,13.17665,0s5.46188,1.2356,5.46188,4.88942 C193.64465,66.60288,190.79909,71.02355,184.7545,71.02355z"></path> <g> <path class="st3" d="M22.6224,141.4115v20.73438h-2.54443V141.4115H22.6224z M21.4847,141.4115h4.28076 c1.35645,0,2.56885,0.25098,3.63672,0.75488c1.06738,0.50391,1.91553,1.21973,2.54395,2.14746 c0.62891,0.92871,0.94287,2.03418,0.94287,3.31738c0,1.26465-0.31396,2.36523-0.94287,3.30273 c-0.62842,0.93848-1.47656,1.65918-2.54395,2.16309c-1.06787,0.50293-2.28027,0.75488-3.63672,0.75488H21.4847v-2.37012h4.28076 c1.35645,0,2.45898-0.3252,3.30713-0.97656c0.84814-0.65234,1.27246-1.60938,1.27246-2.87402 c0-1.2832-0.42432-2.24609-1.27246-2.8877s-1.95068-0.96289-3.30713-0.96289H21.4847V141.4115z"></path> <path class="st3" d="M45.01156,141.4115v20.73438h-2.54443V141.4115H45.01156z M43.87386,149.70544h14.36768v2.36914H43.87386 V149.70544z M59.07992,141.4115v20.73438h-2.54443V141.4115H59.07992z"></path> <path class="st3" d="M69.45199,147.55701c0.52832-1.29297,1.27197-2.41797,2.22998-3.37598 c0.95752-0.95801,2.08496-1.70801,3.38232-2.25195c1.29688-0.54297,2.70361-0.81445,4.22021-0.81445 c1.53662,0,2.94873,0.27148,4.23584,0.81445c1.28711,0.54395,2.40918,1.29395,3.36719,2.25195s1.70117,2.08301,2.22998,3.37598 c0.52832,1.29395,0.79346,2.70117,0.79346,4.22168c0,1.50098-0.26514,2.90234-0.79346,4.20605 c-0.52881,1.30371-1.27197,2.43359-2.22998,3.3916s-2.08008,1.70801-3.36719,2.25098s-2.69922,0.81445-4.23584,0.81445 c-1.5166,0-2.92334-0.27148-4.22021-0.81445c-1.29736-0.54297-2.4248-1.29297-3.38232-2.25098 c-0.95801-0.95801-1.70166-2.08789-2.22998-3.3916c-0.5293-1.30371-0.79346-2.70508-0.79346-4.20605 C68.65853,150.25818,68.92269,148.85095,69.45199,147.55701z M72.38509,155.95544c0.68848,1.22461,1.63135,2.19141,2.82861,2.90234 s2.5542,1.06641,4.0708,1.06641c1.53662,0,2.89844-0.35547,4.08594-1.06641c1.18701-0.71094,2.12549-1.67773,2.81348-2.90234 c0.68848-1.22461,1.03271-2.61719,1.03271-4.17676s-0.34424-2.95215-1.03271-4.17676 c-0.68799-1.22461-1.62646-2.19238-2.81348-2.90332c-1.1875-0.71094-2.54932-1.06543-4.08594-1.06543 c-1.5166,0-2.87354,0.35449-4.0708,1.06543s-2.14014,1.67871-2.82861,2.90332s-1.03271,2.61719-1.03271,4.17676 S71.69662,154.73083,72.38509,155.95544z"></path> <path class="st3" d="M96.49545,141.4115h13.31982v2.36914h-5.3877v18.36523h-2.54443v-18.36523h-5.3877V141.4115z"></path> <path class="st3" d="M116.59603,147.55701c0.52832-1.29297,1.27197-2.41797,2.22998-3.37598 c0.95752-0.95801,2.08496-1.70801,3.38232-2.25195c1.29688-0.54297,2.70361-0.81445,4.22021-0.81445 c1.53662,0,2.94874,0.27148,4.23585,0.81445c1.28711,0.54395,2.40918,1.29395,3.36719,2.25195s1.70117,2.08301,2.22998,3.37598 c0.52832,1.29395,0.79346,2.70117,0.79346,4.22168c0,1.50098-0.26514,2.90234-0.79346,4.20605 c-0.52881,1.30371-1.27197,2.43359-2.22998,3.3916s-2.08008,1.70801-3.36719,2.25098s-2.69923,0.81445-4.23585,0.81445 c-1.5166,0-2.92334-0.27148-4.22021-0.81445c-1.29736-0.54297-2.4248-1.29297-3.38232-2.25098 c-0.95801-0.95801-1.70166-2.08789-2.22998-3.3916c-0.5293-1.30371-0.79346-2.70508-0.79346-4.20605 C115.80257,150.25818,116.06673,148.85095,116.59603,147.55701z M119.52914,155.95544 c0.68848,1.22461,1.63135,2.19141,2.82861,2.90234s2.5542,1.06641,4.0708,1.06641c1.53662,0,2.89845-0.35547,4.08595-1.06641 c1.18701-0.71094,2.12549-1.67773,2.81348-2.90234c0.68848-1.22461,1.03271-2.61719,1.03271-4.17676 s-0.34424-2.95215-1.03271-4.17676c-0.68799-1.22461-1.62646-2.19238-2.81348-2.90332 c-1.1875-0.71094-2.54932-1.06543-4.08595-1.06543c-1.5166,0-2.87354,0.35449-4.0708,1.06543s-2.14014,1.67871-2.82861,2.90332 s-1.03271,2.61719-1.03271,4.17676S118.84066,154.73083,119.52914,155.95544z"></path> <path class="st3" d="M160.10239,141.4115h2.84375l-9.72803,21.77148l-9.72803-21.77148h2.84326l6.88477,16.05469 L160.10239,141.4115z"></path> <path class="st3" d="M170.62387,147.55701c0.52832-1.29297,1.27197-2.41797,2.22998-3.37598 c0.95752-0.95801,2.08496-1.70801,3.38232-2.25195c1.29688-0.54297,2.70361-0.81445,4.22021-0.81445 c1.53662,0,2.94873,0.27148,4.23584,0.81445c1.28711,0.54395,2.40918,1.29395,3.36719,2.25195s1.70117,2.08301,2.22998,3.37598 c0.52832,1.29395,0.79346,2.70117,0.79346,4.22168c0,1.50098-0.26514,2.90234-0.79346,4.20605 c-0.52881,1.30371-1.27197,2.43359-2.22998,3.3916s-2.08008,1.70801-3.36719,2.25098s-2.69922,0.81445-4.23584,0.81445 c-1.5166,0-2.92334-0.27148-4.22021-0.81445c-1.29736-0.54297-2.4248-1.29297-3.38232-2.25098 c-0.95801-0.95801-1.70166-2.08789-2.22998-3.3916c-0.5293-1.30371-0.79346-2.70508-0.79346-4.20605 C169.83041,150.25818,170.09457,148.85095,170.62387,147.55701z M173.55698,155.95544 c0.68848,1.22461,1.63135,2.19141,2.82861,2.90234s2.5542,1.06641,4.0708,1.06641c1.53662,0,2.89844-0.35547,4.08594-1.06641 c1.18701-0.71094,2.12549-1.67773,2.81348-2.90234c0.68848-1.22461,1.03271-2.61719,1.03271-4.17676 s-0.34424-2.95215-1.03271-4.17676c-0.68799-1.22461-1.62646-2.19238-2.81348-2.90332 c-1.1875-0.71094-2.54932-1.06543-4.08594-1.06543c-1.5166,0-2.87354,0.35449-4.0708,1.06543s-2.14014,1.67871-2.82861,2.90332 s-1.03271,2.61719-1.03271,4.17676S172.8685,154.73083,173.55698,155.95544z"></path> <path class="st3" d="M203.20541,141.4115v18.36426h8.23145v2.37012h-10.77588V141.4115H203.20541z"></path> <path class="st3" d="M215.92661,141.4115h13.31982v2.36914h-5.3877v18.36523h-2.54443v-18.36523h-5.3877V141.4115z"></path> <path class="st3" d="M238.8851,154.32556l-0.23926,0.5332l-3.11328,7.28711h-2.84326l9.72803-21.77148l9.72803,21.77148h-2.84375 l-3.05322-7.10938l-0.23926-0.5918l-3.5918-8.35352L238.8851,154.32556z M237.83725,153.55603h9.2793l0.89795,2.36914h-11.0752 L237.83725,153.55603z"></path> <path class="st3" d="M263.22006,141.4115v20.73438h-2.54443V141.4115H263.22006z"></path> <path class="st3" d="M276.54037,141.4115v20.73438h-2.54443V141.4115H276.54037z M287.91489,141.4115l-9.06982,9.71582 l9.51855,11.01855h-3.14307l-9.4585-10.95996l9.00977-9.77441H287.91489z"></path> </g> </svg> 