<svg width="41" height="40" viewBox="0 0 41 40" fill="none" xmlns="http://www.w3.org/2000/svg">
<rect x="0.857422" width="40" height="40" rx="8" fill="white" fill-opacity="0.1"/>
<rect x="1.35742" y="0.5" width="39" height="39" rx="7.5" stroke="white" stroke-opacity="0.1"/>
<path d="M14.1916 21.6667C14.0339 21.6673 13.8793 21.623 13.7458 21.5392C13.6122 21.4554 13.5052 21.3354 13.4371 21.1931C13.369 21.0509 13.3427 20.8922 13.3612 20.7356C13.3797 20.579 13.4423 20.4309 13.5416 20.3084L21.7916 11.8084C21.8535 11.737 21.9379 11.6887 22.0308 11.6715C22.1237 11.6543 22.2197 11.6692 22.3031 11.7138C22.3864 11.7584 22.4521 11.83 22.4894 11.9168C22.5267 12.0037 22.5334 12.1006 22.5083 12.1917L20.9083 17.2084C20.8611 17.3347 20.8453 17.4705 20.8621 17.6042C20.879 17.738 20.928 17.8656 21.0051 17.9762C21.0821 18.0869 21.1848 18.1771 21.3044 18.2394C21.424 18.3016 21.5568 18.3338 21.6916 18.3334H27.525C27.6827 18.3329 27.8373 18.3771 27.9708 18.4609C28.1044 18.5447 28.2114 18.6648 28.2795 18.807C28.3476 18.9493 28.3739 19.1079 28.3554 19.2645C28.3369 19.4211 28.2743 19.5693 28.175 19.6917L19.925 28.1917C19.8631 28.2632 19.7788 28.3114 19.6858 28.3286C19.5929 28.3458 19.4969 28.3309 19.4135 28.2863C19.3302 28.2417 19.2645 28.1701 19.2272 28.0833C19.1899 27.9965 19.1832 27.8995 19.2083 27.8084L20.8083 22.7917C20.8555 22.6655 20.8713 22.5296 20.8545 22.3959C20.8376 22.2621 20.7886 22.1345 20.7116 22.0239C20.6345 21.9132 20.5318 21.823 20.4122 21.7608C20.2927 21.6985 20.1598 21.6663 20.025 21.6667H14.1916Z" stroke="white" stroke-width="1.5" stroke-linecap="round" stroke-linejoin="round"/>
</svg>
