<svg width="41" height="40" viewBox="0 0 41 40" fill="none" xmlns="http://www.w3.org/2000/svg">
<rect x="0.857422" width="40" height="40" rx="8" fill="white" fill-opacity="0.1"/>
<rect x="1.35742" y="0.5" width="39" height="39" rx="7.5" stroke="white" stroke-opacity="0.1"/>
<path d="M27.5234 15H14.1901C13.2696 15 12.5234 15.7462 12.5234 16.6667V23.3333C12.5234 24.2538 13.2696 25 14.1901 25H27.5234C28.4439 25 29.1901 24.2538 29.1901 23.3333V16.6667C29.1901 15.7462 28.4439 15 27.5234 15Z" stroke="white" stroke-width="1.5" stroke-linecap="round" stroke-linejoin="round"/>
<path d="M20.8581 21.6668C21.7785 21.6668 22.5247 20.9206 22.5247 20.0002C22.5247 19.0797 21.7785 18.3335 20.8581 18.3335C19.9376 18.3335 19.1914 19.0797 19.1914 20.0002C19.1914 20.9206 19.9376 21.6668 20.8581 21.6668Z" stroke="white" stroke-width="1.5" stroke-linecap="round" stroke-linejoin="round"/>
<path d="M15.8574 20H15.8658M25.8574 20H25.8658" stroke="white" stroke-width="1.5" stroke-linecap="round" stroke-linejoin="round"/>
</svg>
